HIERARCHY
ROOT hip
{
	OFFSET 0.000000 0.000000 0.000000 
	CHANNELS 6 Xposition Yposition Zposition Xrotation Zrotation Yrotation
	JOINT abdomen
	{
		OFFSET 0.000000 3.402643 0.000000 
		CHANNELS 3 Xrotation Zrotation Yrotation
		JOINT chest
		{
			OFFSET 0.000000 8.438565 -0.680529 
			CHANNELS 3 Xrotation Zrotation Yrotation
			JOINT neck
			{
				OFFSET 0.000000 10.207942 -0.272212 
				CHANNELS 3 Xrotation Zrotation Yrotation
				JOINT head
				{
					OFFSET 0.000000 3.130431 0.000000 
					CHANNELS 3 Xrotation Zrotation Yrotation
					End Site
					{
						OFFSET 0.000000 3.130435 0.000000 
					}
				}
			}
			JOINT lCollar
			{
				OFFSET 3.470700 6.669187 -0.816635 
				CHANNELS 3 Yrotation Zrotation Xrotation
				JOINT lShldr
				{
					OFFSET 3.198488 0.000000 0.000000 
					CHANNELS 3 Zrotation Yrotation Xrotation
					JOINT lForeArm
					{
						OFFSET 10.139888 0.000000 0.000000 
						CHANNELS 3 Yrotation Zrotation Xrotation
						JOINT lHand
						{
							OFFSET 8.370511 0.000000 0.000000 
							CHANNELS 3 Zrotation Yrotation Xrotation
							End Site
							{
								OFFSET 4.083176 0.000000 0.000000 
							}
						}
					}
				}
			}
			JOINT rCollar
			{
				OFFSET -3.470700 6.669187 -0.816635 
				CHANNELS 3 Yrotation Zrotation Xrotation
				JOINT rShldr
				{
					OFFSET -3.198488 0.000000 0.000000 
					CHANNELS 3 Zrotation Yrotation Xrotation
					JOINT rForeArm
					{
						OFFSET -10.139888 0.000000 0.000000 
						CHANNELS 3 Yrotation Zrotation Xrotation
						JOINT rHand
						{
							OFFSET -8.370511 0.000000 0.000000 
							CHANNELS 3 Zrotation Yrotation Xrotation
							End Site
							{
								OFFSET -4.083176 0.000000 0.000000 
							}
						}
					}
				}
			}
		}
	}
	JOINT lThigh
	{
		OFFSET 5.308129 -1.633274 1.361059 
		CHANNELS 3 Xrotation Zrotation Yrotation
		JOINT lShin
		{
			OFFSET -2.041588 -20.007561 0.000000 
			CHANNELS 3 Xrotation Zrotation Yrotation
			JOINT lFoot
			{
				OFFSET 0.000000 -19.190928 -1.224953 
				CHANNELS 3 Xrotation Yrotation Zrotation
				End Site
				{
					OFFSET 0.000000 -2.449906 4.627600 
				}
			}
		}
	}
	JOINT rThigh
	{
		OFFSET -5.308129 -1.633274 1.361059 
		CHANNELS 3 Xrotation Zrotation Yrotation
		JOINT rShin
		{
			OFFSET 2.041588 -20.007561 0.000000 
			CHANNELS 3 Xrotation Zrotation Yrotation
			JOINT rFoot
			{
				OFFSET 0.000000 -19.190928 -1.224953 
				CHANNELS 3 Xrotation Yrotation Zrotation
				End Site
				{
					OFFSET 0.000000 -2.449906 4.627600 
				}
			}
		}
	}
}
MOTION
Frames: 13
Frame Time: 0.033333
-5.659983 51.277458 0.155570 165.742203 177.246094 6.338360 29.822811 -7.874106 -5.629282 -25.419922 10.205740 2.042297 51.063168 8.107644 2.471410 -54.511719 2.041015 2.148438 2.000000 -2.000000 0.000000 -97.783203 26.357422 -23.530819 -59.885807 -1.352284 -2.441008 26.971561 56.301159 29.193512 -2.000000 2.000000 0.000000 80.058594 -38.876953 5.247778 104.816902 -0.608464 -3.209917 -33.404819 -39.312489 26.525297 -17.361002 14.118236 12.851210 29.360786 -4.546946 -2.792401 -13.329439 -5.421043 -8.445614 -11.424578 -15.744786 -24.882607 26.352827 4.583753 2.350803 -5.576143 -4.549614 2.827159 
-5.897332 51.316837 0.356281 165.556656 176.914063 6.768104 29.822811 -7.874106 -5.629282 -25.419922 10.205740 2.042297 51.063168 8.107644 2.471410 -54.980473 2.783203 0.498047 2.000000 -2.000000 0.000000 -97.460938 26.542969 -24.091795 -60.075298 -1.652911 -2.227671 27.505453 56.267502 29.076542 -2.000000 2.000000 0.000000 80.263672 -38.554691 5.966797 104.645950 -0.599109 -3.033474 -32.946209 -39.307144 26.409184 -17.966780 14.187137 12.281139 29.147436 -4.555739 -2.621487 -13.045876 -5.420771 -8.477352 -11.806576 -15.819351 -24.849300 26.354406 4.569733 2.367234 -5.023518 -4.634211 3.062464 
-6.145037 51.324730 0.547413 165.380875 176.406250 7.149050 29.822811 -7.874106 -5.629282 -25.419922 10.205740 2.042297 51.063168 8.107644 2.471410 -55.595703 3.886718 -3.310547 2.000000 -2.000000 0.000000 -97.138672 26.494141 -24.409704 -60.244278 -1.473352 -2.336181 28.305355 56.281067 28.917389 -2.000000 2.000000 0.000000 80.263672 -38.476563 6.679688 104.645950 -0.599109 -3.033474 -32.550274 -39.528828 26.215630 -18.738201 14.245728 12.013472 29.711479 -4.620081 -2.693548 -13.614149 -5.712684 -8.271999 -12.313901 -15.768444 -24.934841 26.362780 4.579370 2.370091 -4.312904 -4.699943 3.533969 
-6.388900 51.371986 0.726625 165.195328 175.917969 7.705774 29.822811 -7.874106 -5.629282 -25.419922 10.205740 2.042297 51.063168 8.107644 2.471410 -56.552738 5.361328 -8.261718 2.000000 -2.000000 0.000000 -96.650391 26.835938 -24.003906 -60.235485 -1.143016 -2.374954 28.377708 56.371220 28.244406 -2.000000 2.000000 0.000000 80.585938 -38.388672 6.908000 104.470169 -0.599109 -3.033474 -32.155449 -39.213104 25.811071 -19.409861 14.038433 11.797561 30.037161 -4.502390 -2.885284 -13.799123 -5.755379 -7.414242 -12.645735 -15.572558 -24.904259 26.534552 4.559031 2.380007 -3.419268 -5.168912 4.169600 
-6.615094 51.403511 0.896846 -15.019531 4.570313 -171.738281 29.822811 -7.874106 -5.629282 -25.419922 10.205740 2.042297 51.063168 8.107644 2.471410 -57.529297 6.650390 -13.826996 2.000000 -2.000000 0.000000 -96.455078 26.855469 -24.546370 -60.242603 -1.332893 -2.275675 28.830856 56.795528 28.232864 -2.000000 2.000000 0.000000 80.878906 -38.222656 7.913879 104.294670 -0.588796 -3.042656 -31.770166 -39.063995 25.669462 -20.203272 14.138777 10.989114 30.054377 -4.503005 -2.673433 -13.531001 -5.977705 -7.355576 -13.026849 -15.632648 -24.870712 26.534552 4.559033 2.380007 -2.739742 -5.510022 4.865277 
-6.810006 51.442905 1.048990 -15.205080 5.244141 -171.230469 29.822811 -7.874106 -5.629282 -25.605469 10.205079 1.992188 51.063168 8.107644 2.471410 -58.486328 7.939453 -19.707033 2.000000 -2.000000 0.000000 -96.142578 27.128906 -24.311953 -60.061596 -1.342535 -2.441575 29.187546 57.089989 28.535334 -2.000000 2.000000 0.000000 80.976563 -37.919922 8.245952 104.118889 -0.579047 -3.042092 -31.845835 -38.870918 25.624157 -20.971609 14.174857 10.742560 30.575659 -4.580564 -2.784071 -13.589099 -6.011085 -6.897503 -13.571802 -15.470282 -24.646439 26.534552 4.559031 2.380007 -1.821287 -5.651268 5.901617 
-6.966827 51.482281 1.203300 -15.400392 5.751953 -170.693359 29.822811 -7.874106 -5.629282 -25.605469 10.380861 1.835938 51.063168 8.107644 2.471410 -59.492191 9.052734 -25.625000 2.000000 -2.000000 0.000000 -95.869141 27.255859 -24.453127 -59.726147 -1.481967 -2.315871 28.716253 57.476730 27.981482 -2.000000 2.000000 0.000000 80.869141 -37.910160 9.150391 104.294670 -0.588796 -3.042656 -31.413294 -38.906139 25.608515 -21.697012 14.372924 10.265552 30.765566 -4.571388 -2.768791 -13.532202 -6.233079 -6.855725 -13.993093 -15.201704 -24.440777 26.552301 4.570014 2.392917 -1.009842 -6.271627 6.303774 
-7.072304 51.545311 1.309100 -15.566406 6.259766 -170.135651 29.822811 -7.874106 -5.629282 -25.781250 10.566406 1.642416 51.063168 8.107644 2.471410 -60.341797 9.785155 -30.849615 2.000000 -2.000000 0.000000 -95.888672 27.314453 -24.438877 -59.534229 -1.362033 -2.440441 28.798779 57.968273 28.593645 -2.000000 2.000000 0.000000 80.263672 -37.548828 10.205079 104.470169 -0.599109 -3.033474 -31.508793 -38.870045 25.819595 -22.409769 14.587765 9.998073 30.944168 -4.479140 -2.798553 -12.894635 -6.339985 -6.532354 -14.334867 -15.006370 -24.238688 26.554037 4.559067 2.391318 -0.355136 -6.754352 7.073959 
-7.096119 51.561069 1.416358 -15.751951 6.572266 -169.715683 29.822811 -7.874106 -5.629282 -25.947268 10.917969 1.455078 51.063168 8.107644 2.471410 -61.044926 10.166015 -35.576176 2.000000 -2.000000 0.000000 -96.259766 27.978516 -24.824221 -59.195557 -1.670706 -2.197297 28.617592 58.070412 28.753286 -2.000000 2.000000 0.000000 79.648438 -37.128910 11.263637 104.645943 -0.608858 -3.034038 -31.314280 -39.010555 26.061493 -22.997837 14.619059 9.576895 31.103294 -4.556379 -2.792461 -12.754059 -6.711493 -6.363723 -14.706357 -14.695388 -24.217884 26.542683 4.570265 2.382461 -0.029866 -7.062698 7.743166 
-7.051522 51.600464 1.498460 -15.957031 6.904296 -169.481247 29.822811 -7.874106 -5.629282 -26.298828 11.279297 1.230469 51.063168 8.107644 2.471410 -61.738285 10.371093 -39.248051 2.000000 -2.000000 0.000000 -96.464844 28.242188 -24.960938 -58.833584 -1.199909 -2.175870 28.762428 58.466045 29.059464 -2.000000 2.000000 0.000000 79.033203 -36.669922 11.937528 104.821716 -0.618608 -3.034602 -31.636261 -39.118401 26.543842 -23.521320 14.801276 9.272749 31.275286 -4.449795 -2.769657 -12.362900 -6.981245 -6.380089 -14.996956 -14.250301 -23.811743 26.541523 4.579670 2.374772 0.389125 -7.137073 8.588296 
-6.925679 51.600464 1.556840 -15.947264 7.080078 -169.354263 29.822811 -7.874106 -5.629282 -26.279299 11.630859 1.259766 51.063168 8.107644 2.471410 -62.109375 10.234374 -42.089844 2.000000 -2.000000 0.000000 -96.601563 28.603516 -24.345701 -58.657269 -1.198773 -2.156379 28.647478 58.775593 29.417591 -2.000000 2.000000 0.000000 78.798828 -36.650387 12.304688 104.645943 -0.608858 -3.034038 -31.089512 -39.013321 26.027857 -24.048756 14.986840 9.016054 31.819536 -4.512646 -2.840830 -12.251850 -7.187098 -6.964239 -15.065617 -14.163370 -23.500395 26.534552 4.559036 2.380007 0.158823 -6.870797 9.518961 
-6.760989 51.616211 1.590004 -15.957031 6.904296 -169.315231 29.822811 -7.874106 -5.629282 -26.279299 11.630859 1.259766 51.063168 8.107644 2.471410 -62.304691 9.882812 -43.632816 2.000000 -2.000000 0.000000 -96.308594 29.003906 -23.432764 -58.657269 -1.198773 -2.156379 29.275366 58.599075 30.431635 -2.000000 2.000000 0.000000 79.023438 -36.865234 12.181641 104.469887 -0.609422 -3.024293 -30.890306 -39.065788 25.582949 -24.188519 15.155527 8.787827 31.621542 -4.439455 -2.805433 -11.521003 -6.836287 -7.156412 -14.930049 -14.029327 -23.547167 26.534552 4.559034 2.380007 0.179252 -6.948046 10.066156 
-6.566759 51.600464 1.588893 -15.947264 6.757813 -169.432449 29.822811 -7.874106 -5.629282 -26.279299 11.806641 1.269531 51.063168 8.107644 2.471410 -62.333988 9.199218 -44.384769 2.000000 -2.000000 0.000000 -95.937500 29.462893 -22.163164 -58.481464 -1.218271 -2.155242 29.618645 58.648827 30.339718 -2.000000 2.000000 0.000000 79.287109 -37.255859 11.478463 104.294395 -0.589360 -3.032910 -30.804228 -39.102230 25.391039 -24.204464 15.162318 8.599591 31.801453 -4.420387 -2.814828 -11.433367 -7.030864 -7.537979 -14.908569 -13.839733 -22.671816 26.537144 4.647518 1.913333 -0.506459 -6.963212 10.608281 
